<svg xmlns="http://www.w3.org/2000/svg" viewBox="0 0 100 100" fill-rule="evenodd"><g class="t-group-origins" style="transform-origin:center;transform:scale(0.79);"><path d="m78.68 27.971-11.23-.125v-7.359c0-9.725-7.913-17.636-17.638-17.636-9.724 0-17.635 7.912-17.635 17.636v6.965l-10.823-.121c-.41.009-.787.152-1.071.434a1.5 1.5 0 0 0-.445 1.066v66.818a1.5 1.5 0 0 0 1.5 1.5h57.327a1.5 1.5 0 0 0 1.5-1.5V29.472a1.503 1.503 0 0 0-1.485-1.501zm-43.503-7.484c0-8.07 6.565-14.636 14.635-14.636 8.071 0 14.638 6.566 14.638 14.636v7.325l-29.273-.327v-6.998zm41.987 73.662H22.837V30.348l9.34.104v4.493c-2.069.677-3.579 2.603-3.579 4.896 0 2.853 2.321 5.173 5.173 5.173s5.173-2.321 5.173-5.173c0-2.362-1.601-4.338-3.768-4.955v-4.4l29.273.327v4.103c-2.118.648-3.673 2.598-3.673 4.925 0 2.853 2.321 5.173 5.173 5.173s5.173-2.321 5.173-5.173c0-2.327-1.555-4.278-3.673-4.925v-4.069l9.714.109v63.193h.001zM33.771 37.668c1.198 0 2.173.975 2.173 2.173s-.975 2.173-2.173 2.173-2.173-.975-2.173-2.173.975-2.173 2.173-2.173zm32.179 0c1.198 0 2.173.975 2.173 2.173s-.975 2.173-2.173 2.173-2.173-.975-2.173-2.173.975-2.173 2.173-2.173z" stroke-width="0" stroke="#000000" fill="#000000" stroke-width-old="0"></path></g></svg>
